<?xml version="1.0" standalone="no"?>
<!DOCTYPE svg PUBLIC "-//W3C//DTD SVG 20010904//EN" "http://www.w3.org/TR/2001/REC-SVG-20010904/DTD/svg10.dtd">
<!-- Created using Krita: https://krita.org -->
<svg xmlns="http://www.w3.org/2000/svg" 
    xmlns:xlink="http://www.w3.org/1999/xlink"
    xmlns:krita="http://krita.org/namespaces/svg/krita"
    xmlns:sodipodi="http://sodipodi.sourceforge.net/DTD/sodipodi-0.dtd"
    width="1440pt"
    height="1440pt"
    viewBox="0 0 1440 1440">
<defs/>
<g id="group0" transform="matrix(0.175254182656631 0 0 0.175254182656631 609.259768361029 472.734779330445)" fill="none">
  <g id="group1" fill="none">
   <path id="shape0" transform="translate(191.250037559366, 67.3118863039826)" fill="#e84350" fill-rule="evenodd" stroke="#241422" stroke-width="0.72" stroke-linecap="square" stroke-linejoin="bevel" d="M4.8 2.4C4.8 1.07452 3.72548 8.11598e-17 2.4 0C1.07452 -8.11598e-17 1.6232e-16 1.07452 0 2.4C-1.6232e-16 3.72548 1.07452 6 2.4 6C3.72548 6 4.8 3.72548 4.8 2.4Z" sodipodi:nodetypes="ccccc"/>
   <path id="shape1" transform="translate(95.4975323047292, 67.3228647930316)" fill="#e84350" fill-rule="evenodd" stroke="#241422" stroke-width="0.72" stroke-linecap="square" stroke-linejoin="bevel" d="M4.8 2.4C4.8 1.07452 3.72548 8.11598e-17 2.4 0C1.07452 -8.11598e-17 1.6232e-16 1.07452 0 2.4C-1.6232e-16 3.72548 1.07452 6 2.4 6C3.72548 6 4.8 3.72548 4.8 2.4Z" sodipodi:nodetypes="ccccc"/>
   <path id="shape2" transform="translate(113.250037559366, 51.5992798295235)" fill="#ffc4d7" fill-rule="evenodd" stroke="#000000" stroke-width="0.72" stroke-linecap="square" stroke-linejoin="bevel" d="M10.8 0L16.8 9.6L21.6 31.2L24 52.8L24 67.2L21.6 68.4L3.6 69.6L0 74.4L0 78L2.4 85.2L6 88.8L10.8 91.2L28.8 94.8L30.46 96L32.4 108L34.8 96L36 94.8L54 91.2L58.8 88.8L62.4 85.2L64.8 78L64.8 74.4L61.2 69.6L43.2 68.4L40.8 67.2L40.8 52.8L43.2 31.2L48 9.6L54 0Z" sodipodi:nodetypes="cccccccccccccccccccccccccccccc"/>
   <path id="shape3" transform="translate(142.050037559366, 50.3992798295237)" fill="#ffffff" fill-rule="evenodd" stroke="#ffffff" stroke-width="0.72" stroke-linecap="square" stroke-linejoin="bevel" d="M0 0L2.4 68.4L3.6 70.8L4.8 68.4L7.2 0Z" sodipodi:nodetypes="cccccc"/>
   <path id="shape4" transform="translate(127.605889669172, 0)" fill="#ffc4d7" fill-rule="evenodd" stroke="#000000" stroke-width="0.96" stroke-linecap="square" stroke-linejoin="bevel" d="M0.0441479 32.3993C-0.1453 30.0069 0.27871 27.6066 1.24415 25.1993C3.86956 18.6837 6.74783 11.867 10.8441 3.59928C15.6574 -1.22271 20.4572 -1.17676 25.2441 3.59928C28.7267 10.7475 32.2507 17.8881 34.8441 25.1993C35.4426 27.1599 36.2071 28.7532 36.0441 32.3993Z" sodipodi:nodetypes="ccccccc"/>
   <path id="shape5" transform="translate(0, 20.3992798295236)" fill="#ffc4d7" fill-rule="evenodd" stroke="#000000" stroke-width="0.96" stroke-linecap="square" stroke-linejoin="bevel" d="M1.65004 12L4.46998 9.6L84.45 9.6L88.05 4.8L88.05 2.4L90.45 0L107.25 0L109.65 2.4L109.65 4.8L113.25 9.6L178.05 9.6L181.65 4.8L181.65 2.4L184.05 0L200.85 0L203.25 2.4L203.25 4.8L206.85 9.6L287.25 9.6L289.65 12L291.465 15.6L289.65 22.8L280.05 30L212.175 38.4L210.45 38.4L208.05 37.2L207.436 35.3102L204.45 28.8L202.05 33.6L200.85 42L200.85 46.8L199.65 50.4L186.45 50.4L185.25 46.8L185.25 40.8L184.05 34.8L181.65 33.6L174.45 31.2L116.85 31.2L109.65 33.6L107.25 34.8L106.05 40.8L106.05 46.8L104.85 50.4L91.65 50.4L90.45 46.8L90.45 42L89.25 33.6L86.85 28.8L83.9099 35.3927L83.25 37.2L80.85 38.4L79.0494 38.4L12.45 30L1.65004 22.8L0 15.6Z" sodipodi:nodetypes="ccccccccccccccccccccccccccccccccccccccccccccccccccccccccc"/>
   <path id="shape6" transform="translate(1.65003755936581, 23.9992798295236)" fill="#ffffff" fill-rule="evenodd" stroke="#ffffff" stroke-width="0.96" stroke-linecap="square" stroke-linejoin="bevel" d="M0 10.8L82.8 10.8L90 9.6L91.2 0L96 0L97.2 8.4L104.4 10.8L183.6 10.8L190.8 8.4L193.2 0L198 0L199.2 9.6L208.8 10.8L288 10.8L284.4 19.2L278.4 22.8L277.2 24L208.8 31.2L205.2 21.6L201.6 20.4L198 21.6L195.6 30L194.4 39.6L190.8 39.6L189.6 30L187.2 21.6L176.4 22.8L172.8 25.2L115.2 25.2L111.6 22.8L100.8 21.6L98.4 30L97.2 39.6L93.6 39.6L92.4 30L90 22.8L86.4 21.6L82.8 22.8L79.2 31.2L10.8 24L9.6 22.8L3.6 19.2Z" sodipodi:nodetypes="ccccccccccccccccccccccccccccccccccccccccccc"/>
   <path id="shape7" transform="translate(88.0500375593658, 20.3992798295236)" fill="#e84350" fill-rule="evenodd" stroke="#000000" stroke-width="0.96" stroke-linecap="square" stroke-linejoin="bevel" d="M0 4.8L0 2.4L2.4 0L19.2 0L21.6 2.4L21.6 4.8C14.4211 4.08372 7.22132 4.07631 0 4.8Z" sodipodi:nodetypes="ccccccc"/>
   <path id="shape01" transform="translate(181.650037559366, 20.3992798295236)" fill="#e84350" stroke="#000000" stroke-width="0.96" stroke-linecap="square" stroke-linejoin="bevel" d="M0 4.8L0 2.4L2.4 0L19.2 0L21.6 2.4L21.6 4.8C14.4211 4.08372 7.22132 4.07631 0 4.8Z" sodipodi:nodetypes="ccccccc"/>
   <path id="shape8" transform="translate(90.4500375593659, 62.5035735554059)" fill="#e84350" fill-rule="evenodd" stroke="#000000" stroke-width="0.96" stroke-linecap="square" stroke-linejoin="bevel" d="M0 0.479639L0 4.69571L1.2 8.29571L14.4 8.29571L15.6 4.69571L15.6 0.453933C10.187 -0.199753 5.01355 -0.108703 0 0.479639Z" sodipodi:nodetypes="ccccccc"/>
   <path id="shape02" transform="matrix(-1 0 0 1 200.865215201496 62.4134277064368)" fill="#e84350" stroke="#000000" stroke-width="0.96" stroke-linecap="square" stroke-linejoin="bevel" d="M0 0.479639L0 4.69571L1.2 8.29571L14.4 8.29571L15.6 4.69571L15.6 0.453933C10.187 -0.199753 5.01355 -0.108703 0 0.479639Z" sodipodi:nodetypes="ccccccc"/>
   <path id="shape9" transform="translate(133.650037559366, 7.19927982952356)" fill="#369ef7" fill-rule="evenodd" stroke="#000000" stroke-width="0.72" stroke-linecap="square" stroke-linejoin="bevel" d="M0 10.8L2.4 4.8L6 1.2L12 0L18 1.2L21.6 4.8L24 10.8L21.6 12L19.2 6L15.6 3.6L12 2.4L8.4 3.6L4.8 6L2.4 12Z" sodipodi:nodetypes="ccccccccccccccc"/>
   <path id="shape10" transform="translate(134.850037559366, 9.59927982952365)" fill="none" stroke="#000000" stroke-width="0.96" stroke-linecap="square" stroke-linejoin="bevel" d="M0 12L1.2 9.6L3.6 3.6L7.2 1.2L10.8 0L14.4 1.2L18 3.6L20.4 9.6L21.6 12L21.6 12" sodipodi:nodetypes="cccccccccc"/>
   <path id="shape11" transform="translate(115.650037559366, 129.599279829524)" fill="#ffffff" fill-rule="evenodd" stroke="#ffffff" stroke-width="0.72" stroke-linecap="square" stroke-linejoin="bevel" d="M0 0L14.4 3.6L15.6 4.8L22.8 6L28.1228 8.4L32.4 8.4L37.2 6L44.4 4.8L45.6 3.6L60 0L57.6 7.2L60 7.2L56.4 10.8L51.6 13.2L33.6 16.8L32.4 18L30 30L28.105 18L26.4 16.8L8.4 13.2L3.6 10.8L0 7.2L1.91802 7.2L0 0" sodipodi:nodetypes="cccccccccccccccccccccccc"/>
   <ellipse id="shape12" transform="translate(144.450037559366, 137.999279829524)" rx="1.20000000000002" ry="7.19999999999993" cx="1.20000000000002" cy="7.19999999999993" fill="#ffc4d7" fill-rule="evenodd" stroke="#000000" stroke-width="0.72" stroke-linecap="square" stroke-linejoin="bevel"/>
   <path id="shape13" transform="translate(124.050037559366, 51.5992798295235)" fill="#ffffff" fill-rule="evenodd" stroke="#ffffff" stroke-width="0.72" stroke-linecap="square" stroke-linejoin="bevel" d="M0 0L6 9.6L8.4 20.4L9.15214 16.8L7.2 6L4.8 2.4L4.8 0Z" sodipodi:nodetypes="cccccccc"/>
   <path id="shape03" transform="matrix(-1 0 0 1 167.194107559366 51.5992798295235)" fill="#ffffff" stroke="#ffffff" stroke-width="0.72" stroke-linecap="square" stroke-linejoin="bevel" d="M0 0L6 9.6L8.4 20.4L9.15214 16.8L7.2 6L4.8 2.4L4.8 0Z" sodipodi:nodetypes="cccccccc"/>
   <path id="shape04" transform="translate(113.250037559366, 51.5992798295235)" fill="none" stroke="#000000" stroke-width="0.96" stroke-linecap="square" stroke-linejoin="bevel" d="M10.8 0L16.8 9.6L21.6 31.2L24 52.8L24 67.2L21.6 68.4L3.6 69.6L0 74.4L0 78L2.4 85.2L6 88.8L10.8 91.2L28.8 94.8L30 96L32.4 108L34.8 96L36 94.8L54 91.2L58.8 88.8L62.4 85.2L64.8 78L64.8 74.4L61.2 69.6L43.2 68.4L40.8 67.2L40.8 52.8L43.2 31.2L48 9.6L54 0Z" sodipodi:nodetypes="cccccccccccccccccccccccccccccc"/>
   <rect id="shape14" transform="translate(133.650037559366, 56.3992798295235)" fill="#369ef7" fill-rule="evenodd" stroke="#000000" stroke-width="0.48" stroke-linecap="square" stroke-linejoin="bevel" width="7.19999999999999" height="4.79999999999995"/>
   <rect id="shape05" transform="translate(150.450037559366, 56.3992798295235)" fill="#369ef7" fill-rule="evenodd" stroke="#000000" stroke-width="0.48" stroke-linecap="square" stroke-linejoin="bevel" width="7.19999999999999" height="4.79999999999995"/>
   <rect id="shape06" transform="translate(150.450037559366, 64.7992798295236)" fill="#369ef7" fill-rule="evenodd" stroke="#000000" stroke-width="0.48" stroke-linecap="square" stroke-linejoin="bevel" width="6" height="4.79999999999995"/>
   <rect id="shape07" transform="translate(134.819974937, 64.7992798295236)" fill="#369ef7" fill-rule="evenodd" stroke="#000000" stroke-width="0.48" stroke-linecap="square" stroke-linejoin="bevel" width="6" height="4.79999999999995"/>
   <rect id="shape08" transform="translate(135.450037559366, 73.1992798295237)" fill="#369ef7" fill-rule="evenodd" stroke="#000000" stroke-width="0.48" stroke-linecap="square" stroke-linejoin="bevel" width="6" height="4.79999999999995"/>
   <rect id="shape09" transform="translate(149.850037559366, 73.1992798295237)" fill="#369ef7" fill-rule="evenodd" stroke="#000000" stroke-width="0.48" stroke-linecap="square" stroke-linejoin="bevel" width="6" height="4.79999999999995"/>
   <rect id="shape010" transform="translate(149.790893396229, 82.7992798295238)" fill="#369ef7" fill-rule="evenodd" stroke="#000000" stroke-width="0.48" stroke-linecap="square" stroke-linejoin="bevel" width="4.7980545674825" height="4.79999999999995"/>
   <rect id="shape011" transform="translate(136.740450603801, 82.7992798295236)" fill="#369ef7" fill-rule="evenodd" stroke="#000000" stroke-width="0.48" stroke-linecap="square" stroke-linejoin="bevel" width="4.7980545674825" height="4.79999999999995"/>
   <rect id="shape012" transform="translate(137.906119296842, 91.1992798295237)" fill="#369ef7" fill-rule="evenodd" stroke="#000000" stroke-width="0.48" stroke-linecap="square" stroke-linejoin="bevel" width="4.7980545674825" height="4.79999999999995"/>
   <rect id="shape013" transform="translate(148.556082922795, 91.1992798295237)" fill="#369ef7" fill-rule="evenodd" stroke="#000000" stroke-width="0.48" stroke-linecap="square" stroke-linejoin="bevel" width="4.7980545674825" height="4.79999999999995"/>
   <rect id="shape014" transform="translate(149.250037559366, 113.999279829524)" fill="#369ef7" fill-rule="evenodd" stroke="#000000" stroke-width="0.48" stroke-linecap="square" stroke-linejoin="bevel" width="3.5990272837413" height="4.79999999999995"/>
  </g>
  <g id="group2" transform="matrix(0.115825487263523 0 0 0.115825487263523 227.878950836211 31.1531931574344)" fill="none">
   <rect id="shape15" transform="translate(72.9743050843699, 80.1743050843697)" fill="#000000" fill-rule="evenodd" stroke="#ffea00" stroke-width="0.72" stroke-linecap="square" stroke-linejoin="bevel" width="36" height="36"/>
   <path id="shape015" transform="translate(32.0411982712182, 32.0438927975415)" fill="#ffea00" fill-rule="evenodd" stroke="none" stroke-width="2.4" stroke-linecap="square" stroke-linejoin="bevel" d="M132.266 66.1304L132.244 64.3992L132.177 62.6747L132.067 60.9637L131.914 59.2661L131.719 57.5753L131.48 55.9047L131.201 54.2408L130.881 52.5972L130.519 50.967L130.119 49.3502L129.679 47.7537L129.201 46.1707L128.684 44.6011L128.129 43.0518L127.537 41.5227L126.909 40.0137L126.245 38.5183L125.545 37.0497L124.81 35.5947L124.04 34.1599L123.238 32.752L122.401 31.3643L121.532 29.9968L120.63 28.6563L119.697 27.336L118.732 26.0359L117.738 24.7694L116.713 23.5232L115.659 22.3039L114.575 21.1049L113.463 19.9395L112.323 18.8011L111.156 17.6896L109.962 16.605L108.742 15.5542L107.496 14.5235L106.225 13.5333L104.93 12.57L103.61 11.6336L102.267 10.731L100.901 9.86197L99.5116 9.02666L98.1016 8.22504L96.6695 7.4571L95.2172 6.71611L93.7439 6.02227L92.2512 5.35537L90.7395 4.72889L89.209 4.1361L87.6604 3.57698L86.0948 3.06502L84.5118 2.58675L82.9119 2.14215L81.2966 1.74471L79.6664 1.38094L78.0207 1.06434L76.3609 0.781413L74.6876 0.545642L73.0008 0.350288L71.3012 0.195353L69.5902 0.0875721L67.867 0.0202089L66.1331 0L64.3992 0.0202089L62.676 0.0875721L60.965 0.195353L59.2654 0.350288L57.5787 0.545642L55.9054 0.781413L54.2455 1.06434L52.5998 1.38094L50.9697 1.74471L49.3543 2.14215L47.7544 2.58675L46.1714 3.06502L44.6059 3.57698L43.0572 4.1361L41.5267 4.72889L40.0151 5.35537L38.5223 6.02227L37.0491 6.71611L35.5967 7.4571L34.1646 8.22504L32.7547 9.02666L31.3656 9.86197L29.9995 10.731L28.6563 11.6336L27.3366 12.57L26.0412 13.5333L24.7701 14.5235L23.5246 15.5542L22.3039 16.605L21.1103 17.6896L19.9429 18.8011L18.8031 19.9395L17.6916 21.1049L16.6077 22.3039L15.5535 23.5232L14.5282 24.7694L13.5339 26.0359L12.5693 27.336L11.6363 28.6563L10.7343 29.9968L9.86533 31.3643L9.02868 32.752L8.22572 34.1599L7.45643 35.5947L6.7215 37.0497L6.02159 38.5183L5.35739 40.0137L4.72889 41.5227L4.13745 43.0518L3.58237 44.6011L3.0657 46.1707L2.58675 47.7537L2.14686 49.3502L1.74673 50.967L1.38566 52.5972L1.06501 54.2408L0.786128 55.9047L0.547662 57.5753L0.352309 59.2661L0.198721 60.9637L0.0889194 62.6747L0.0222298 64.3992L0 66.1304L0.0222298 67.8616L0.0889194 69.5861L0.198721 71.2972L0.352309 72.9947L0.547662 74.6855L0.786128 76.3561L1.06501 78.02L1.38566 79.6637L1.74673 81.2939L2.14686 82.9106L2.58675 84.5071L3.0657 86.0901L3.58237 87.6597L4.13745 89.209L4.72889 90.7382L5.35739 92.2471L6.02159 93.7426L6.7215 95.2111L7.45643 96.6661L8.22572 98.101L9.02868 99.5089L9.86533 100.897L10.7343 102.264L11.6363 103.605L12.5693 104.925L13.5339 106.225L14.5282 107.491L15.5535 108.738L16.6077 109.957L17.6916 111.156L18.8031 112.321L19.9429 113.46L21.1103 114.571L22.3039 115.656L23.5246 116.707L24.7701 117.737L26.0412 118.728L27.3366 119.691L28.6563 120.627L29.9995 121.53L31.3656 122.399L32.7547 123.234L34.1646 124.036L35.5967 124.804L37.0491 125.545L38.5223 126.239L40.0151 126.905L41.5267 127.532L43.0572 128.125L44.6059 128.684L46.1714 129.196L47.7544 129.674L49.3543 130.119L50.9697 130.516L52.5998 130.88L54.2455 131.196L55.9054 131.479L57.5787 131.715L59.2654 131.911L60.965 132.065L62.676 132.173L64.3992 132.241L66.1331 132.261L67.867 132.241L69.5902 132.173L71.3012 132.065L73.0008 131.911L74.6876 131.715L76.3609 131.479L78.0207 131.196L79.6664 130.88L81.2966 130.516L82.9119 130.119L84.5118 129.674L86.0948 129.196L87.6604 128.684L89.209 128.125L90.7395 127.532L92.2512 126.905L93.7439 126.239L95.2172 125.545L96.6695 124.804L98.1016 124.036L99.5116 123.234L100.901 122.399L102.267 121.53L103.61 120.627L104.93 119.691L106.225 118.728L107.496 117.737L108.742 116.707L109.962 115.656L111.156 114.571L112.323 113.46L113.463 112.321L114.575 111.156L115.659 109.957L116.713 108.738L117.738 107.491L118.732 106.225L119.697 104.925L120.63 103.605L121.532 102.264L122.401 100.897L123.238 99.5089L124.04 98.101L124.81 96.6661L125.545 95.2111L126.245 93.7426L126.909 92.2471L127.537 90.7382L128.129 89.209L128.684 87.6597L129.201 86.0901L129.679 84.5071L130.119 82.9106L130.519 81.2939L130.881 79.6637L131.201 78.02L131.48 76.3561L131.719 74.6855L131.914 72.9947L132.067 71.2972L132.177 69.5861L132.244 67.8616L132.266 66.1304M121.101 66.1304L121.083 64.6888L121.027 63.254L120.936 61.8326L120.808 60.4248L120.646 59.0236L120.448 57.6292L120.216 56.2482L119.95 54.8808L119.65 53.5268L119.317 52.1862L118.951 50.8524L118.553 49.5389L118.123 48.2388L117.663 46.9521L117.171 45.679L116.648 44.4193L116.096 43.1798L115.514 41.9538L114.903 40.748L114.264 39.5624L113.597 38.3835L112.901 37.2316L112.179 36.0999L111.429 34.9817L110.654 33.8837L109.852 32.8059L109.025 31.7483L108.174 30.7176L107.297 29.7004L106.397 28.7102L105.473 27.7401L104.525 26.7903L103.555 25.8675L102.562 24.9648L101.549 24.0891L100.513 23.2403L99.4563 22.4117L98.3799 21.6101L97.2825 20.8354L96.1663 20.0877L95.0306 19.3602L93.8766 18.6663L92.7045 17.9994L91.5142 17.3595L90.307 16.7465L89.0824 16.1672L87.8422 15.6148L86.5852 15.0961L85.3134 14.6043L84.0261 14.1395L82.7247 13.7084L81.4091 13.311L80.0793 12.9472L78.7368 12.6171L77.3814 12.314L76.0139 12.0445L74.6343 11.8155L73.2433 11.6201L71.8415 11.4517L70.4289 11.3305L69.0061 11.2362L67.574 11.1823L66.1331 11.1621L64.6922 11.1823L63.2601 11.2362L61.8374 11.3305L60.4248 11.4517L59.0229 11.6201L57.6319 11.8155L56.2523 12.0445L54.8848 12.314L53.5295 12.6171L52.1869 12.9472L50.8572 13.311L49.5416 13.7084L48.2401 14.1395L46.9528 14.6043L45.681 15.0961L44.424 15.6148L43.1838 16.1672L41.9592 16.7465L40.752 17.3595L39.5617 17.9994L38.3896 18.6663L37.2357 19.3602L36.0999 20.0877L34.9837 20.8354L33.8864 21.6101L32.8099 22.4117L31.753 23.2403L30.7176 24.0891L29.7038 24.9648L28.7115 25.8675L27.7415 26.7903L26.7937 27.7401L25.8695 28.7102L24.9688 29.7004L24.0924 30.7176L23.241 31.7483L22.4137 32.8059L21.6121 33.8837L20.8368 34.9817L20.087 36.0999L19.3649 37.2316L18.6697 38.3835L18.0021 39.5624L17.3629 40.748L16.7519 41.9538L16.1699 43.1798L15.6181 44.4193L15.0954 45.679L14.6037 46.9521L14.1429 48.2388L13.7131 49.5389L13.315 50.8524L12.9492 52.1862L12.6164 53.5268L12.3167 54.8808L12.0506 56.2482L11.8182 57.6292L11.6201 59.0236L11.4578 60.4248L11.3305 61.8326L11.2389 63.254L11.1836 64.6888L11.1648 66.1304L11.1836 67.572L11.2389 69.0068L11.3305 70.4282L11.4578 71.8361L11.6201 73.2372L11.8182 74.6316L12.0506 76.0126L12.3167 77.3801L12.6164 78.7341L12.9492 80.0746L13.315 81.4084L13.7131 82.722L14.1429 84.0221L14.6037 85.3087L15.0954 86.5819L15.6181 87.8416L16.1699 89.081L16.7519 90.307L17.3629 91.5129L18.0021 92.6984L18.6697 93.8773L19.3649 95.0292L20.087 96.1609L20.8368 97.2791L21.6121 98.3772L22.4137 99.455L23.241 100.513L24.0924 101.543L24.9688 102.56L25.8695 103.551L26.7937 104.521L27.7415 105.47L28.7115 106.393L29.7038 107.296L30.7176 108.172L31.753 109.021L32.8099 109.849L33.8864 110.651L34.9837 111.425L36.0999 112.173L37.2357 112.901L38.3896 113.594L39.5617 114.261L40.752 114.901L41.9592 115.514L43.1838 116.094L44.424 116.646L45.681 117.165L46.9528 117.656L48.2401 118.121L49.5416 118.552L50.8572 118.95L52.1869 119.314L53.5295 119.644L54.8848 119.947L56.2523 120.216L57.6319 120.445L59.0229 120.641L60.4248 120.809L61.8374 120.93L63.2601 121.025L64.6922 121.079L66.1331 121.099L67.574 121.079L69.0061 121.025L70.4289 120.93L71.8415 120.809L73.2433 120.641L74.6343 120.445L76.0139 120.216L77.3814 119.947L78.7368 119.644L80.0793 119.314L81.4091 118.95L82.7247 118.552L84.0261 118.121L85.3134 117.656L86.5852 117.165L87.8422 116.646L89.0824 116.094L90.307 115.514L91.5142 114.901L92.7045 114.261L93.8766 113.594L95.0306 112.901L96.1663 112.173L97.2825 111.425L98.3799 110.651L99.4563 109.849L100.513 109.021L101.549 108.172L102.562 107.296L103.555 106.393L104.525 105.47L105.473 104.521L106.397 103.551L107.297 102.56L108.174 101.543L109.025 100.513L109.852 99.455L110.654 98.3772L111.429 97.2791L112.179 96.1609L112.901 95.0292L113.597 93.8773L114.264 92.6984L114.903 91.5129L115.514 90.307L116.096 89.081L116.648 87.8416L117.171 86.5819L117.663 85.3087L118.123 84.0221L118.553 82.722L118.951 81.4084L119.317 80.0746L119.65 78.7341L119.95 77.3801L120.216 76.0126L120.448 74.6316L120.646 73.2372L120.808 71.8361L120.936 70.4282L121.027 69.0068L121.083 67.572L121.101 66.1304" sodipodi:nodetypes="cccccccccccccccccccccccccccccccccccccccccccccccccccccccccccccccccccccccccccccccccccccccccccccccccccccccccccccccccccccccccccccccccccccccccccccccccccccccccccccccccccccccccccccccccccccccccccccccccccccccccccccccccccccccccccccccccccccccccccccccccccccccccccccccccccccccccccccccccccccccccccccccccccccccccccccccccccccccccccccccccccccccccccccccccccccccccccccccccccccccccccccccccccccccccccccccccccccccccccccccccccccccccccccccccccccccccccccccccccccccccccccccccccccccccccccccccccccccccccccccccccccccccccccccccccccccccc"/>
   <path id="shape16" transform="translate(-452.62569491563, -1097.74569491563)" fill="#f669c5" fill-rule="evenodd" stroke="#000000" stroke-width="2.4" stroke-linecap="square" stroke-linejoin="bevel" d="M648.974 1195.92L648.941 1193.35L648.842 1190.79L648.679 1188.25L648.451 1185.73L648.161 1183.22L647.807 1180.74L647.393 1178.27L646.917 1175.83L646.381 1173.41L645.787 1171.01L645.134 1168.64L644.423 1166.29L643.656 1163.96L642.832 1161.66L641.954 1159.39L641.021 1157.15L640.035 1154.93L638.996 1152.75L637.905 1150.59L636.763 1148.46L635.571 1146.37L634.329 1144.31L633.039 1142.28L631.7 1140.29L630.315 1138.33L628.883 1136.4L627.407 1134.52L625.885 1132.67L624.32 1130.86L622.711 1129.08L621.061 1127.35L619.369 1125.66L617.636 1124.01L615.864 1122.4L614.052 1120.84L612.203 1119.31L610.316 1117.84L608.393 1116.41L606.434 1115.02L604.44 1113.68L602.412 1112.39L600.35 1111.15L598.257 1109.96L596.131 1108.82L593.975 1107.72L591.788 1106.69L589.572 1105.7L587.328 1104.77L585.056 1103.89L582.757 1103.06L580.433 1102.3L578.083 1101.59L575.708 1100.93L573.31 1100.34L570.89 1099.8L568.447 1099.33L565.983 1098.91L563.499 1098.56L560.995 1098.27L558.472 1098.04L555.932 1097.88L553.374 1097.78L550.8 1097.75L548.226 1097.78L545.668 1097.88L543.128 1098.04L540.605 1098.27L538.101 1098.56L535.617 1098.91L533.153 1099.33L530.71 1099.8L528.29 1100.34L525.892 1100.93L523.517 1101.59L521.167 1102.3L518.843 1103.06L516.544 1103.89L514.272 1104.77L512.028 1105.7L509.812 1106.69L507.625 1107.72L505.469 1108.82L503.343 1109.96L501.25 1111.15L499.188 1112.39L497.16 1113.68L495.166 1115.02L493.207 1116.41L491.284 1117.84L489.397 1119.31L487.548 1120.84L485.736 1122.4L483.964 1124.01L482.231 1125.66L480.539 1127.35L478.889 1129.08L477.28 1130.86L475.715 1132.67L474.193 1134.52L472.717 1136.4L471.285 1138.33L469.9 1140.29L468.561 1142.28L467.271 1144.31L466.029 1146.37L464.837 1148.46L463.695 1150.59L462.604 1152.75L461.565 1154.93L460.579 1157.15L459.646 1159.39L458.768 1161.66L457.944 1163.96L457.177 1166.29L456.466 1168.64L455.813 1171.01L455.219 1173.41L454.683 1175.83L454.207 1178.27L453.793 1180.74L453.439 1183.22L453.149 1185.73L452.921 1188.25L452.758 1190.79L452.659 1193.35L452.626 1195.92L452.659 1198.49L452.758 1201.05L452.921 1203.59L453.149 1206.11L453.439 1208.62L453.793 1211.1L454.207 1213.57L454.683 1216.01L455.219 1218.43L455.813 1220.83L456.466 1223.2L457.177 1225.55L457.944 1227.88L458.768 1230.18L459.646 1232.45L460.579 1234.69L461.565 1236.91L462.604 1239.09L463.695 1241.25L464.837 1243.38L466.029 1245.47L467.271 1247.53L468.561 1249.56L469.9 1251.55L471.285 1253.51L472.717 1255.44L474.193 1257.32L475.715 1259.17L477.28 1260.98L478.889 1262.76L480.539 1264.49L482.231 1266.18L483.964 1267.83L485.736 1269.44L487.548 1271L489.397 1272.53L491.284 1274L493.207 1275.43L495.166 1276.82L497.16 1278.16L499.188 1279.45L501.25 1280.69L503.343 1281.88L505.469 1283.02L507.625 1284.12L509.812 1285.15L512.028 1286.14L514.272 1287.07L516.544 1287.95L518.843 1288.78L521.167 1289.54L523.517 1290.25L525.892 1290.91L528.29 1291.5L530.71 1292.04L533.153 1292.51L535.617 1292.93L538.101 1293.28L540.605 1293.57L543.128 1293.8L545.668 1293.96L548.226 1294.06L550.8 1294.09L553.374 1294.06L555.932 1293.96L558.472 1293.8L560.995 1293.57L563.499 1293.28L565.983 1292.93L568.447 1292.51L570.89 1292.04L573.31 1291.5L575.708 1290.91L578.083 1290.25L580.433 1289.54L582.757 1288.78L585.056 1287.95L587.328 1287.07L589.572 1286.14L591.788 1285.15L593.975 1284.12L596.131 1283.02L598.257 1281.88L600.35 1280.69L602.412 1279.45L604.44 1278.16L606.434 1276.82L608.393 1275.43L610.316 1274L612.203 1272.53L614.052 1271L615.864 1269.44L617.636 1267.83L619.369 1266.18L621.061 1264.49L622.711 1262.76L624.32 1260.98L625.885 1259.17L627.407 1257.32L628.883 1255.44L630.315 1253.51L631.7 1251.55L633.039 1249.56L634.329 1247.53L635.571 1245.47L636.763 1243.38L637.905 1241.25L638.996 1239.09L640.035 1236.91L641.021 1234.69L641.954 1232.45L642.832 1230.18L643.656 1227.88L644.423 1225.55L645.134 1223.2L645.787 1220.83L646.381 1218.43L646.917 1216.01L647.393 1213.57L647.807 1211.1L648.161 1208.62L648.451 1206.11L648.679 1203.59L648.842 1201.05L648.941 1198.49L648.974 1195.92M632.4 1195.92L632.372 1193.78L632.29 1191.65L632.154 1189.54L631.965 1187.45L631.724 1185.37L631.43 1183.3L631.085 1181.25L630.69 1179.22L630.245 1177.21L629.751 1175.22L629.208 1173.24L628.617 1171.29L627.979 1169.36L627.295 1167.45L626.565 1165.56L625.789 1163.69L624.97 1161.85L624.106 1160.03L623.199 1158.24L622.25 1156.48L621.259 1154.73L620.227 1153.02L619.155 1151.34L618.042 1149.68L616.891 1148.05L615.701 1146.45L614.473 1144.88L613.209 1143.35L611.908 1141.84L610.571 1140.37L609.199 1138.93L607.792 1137.52L606.352 1136.15L604.879 1134.81L603.374 1133.51L601.837 1132.25L600.268 1131.02L598.67 1129.83L597.041 1128.68L595.384 1127.57L593.698 1126.49L591.985 1125.46L590.245 1124.47L588.478 1123.52L586.686 1122.61L584.868 1121.75L583.027 1120.93L581.161 1120.16L579.273 1119.43L577.362 1118.74L575.43 1118.1L573.477 1117.51L571.503 1116.97L569.51 1116.48L567.498 1116.03L565.468 1115.63L563.42 1115.29L561.355 1115L559.274 1114.75L557.177 1114.57L555.065 1114.43L552.939 1114.35L550.8 1114.32L548.661 1114.35L546.535 1114.43L544.423 1114.57L542.326 1114.75L540.245 1115L538.18 1115.29L536.132 1115.63L534.102 1116.03L532.09 1116.48L530.097 1116.97L528.123 1117.51L526.17 1118.1L524.238 1118.74L522.327 1119.43L520.439 1120.16L518.573 1120.93L516.732 1121.75L514.914 1122.61L513.122 1123.52L511.355 1124.47L509.615 1125.46L507.902 1126.49L506.216 1127.57L504.559 1128.68L502.93 1129.83L501.332 1131.02L499.763 1132.25L498.226 1133.51L496.721 1134.81L495.248 1136.15L493.808 1137.52L492.401 1138.93L491.029 1140.37L489.692 1141.84L488.391 1143.35L487.127 1144.88L485.899 1146.45L484.709 1148.05L483.558 1149.68L482.445 1151.34L481.373 1153.02L480.341 1154.73L479.35 1156.48L478.401 1158.24L477.494 1160.03L476.63 1161.85L475.811 1163.69L475.035 1165.56L474.305 1167.45L473.621 1169.36L472.983 1171.29L472.392 1173.24L471.849 1175.22L471.355 1177.21L470.91 1179.22L470.515 1181.25L470.17 1183.3L469.876 1185.37L469.635 1187.45L469.446 1189.54L469.31 1191.65L469.228 1193.78L469.2 1195.92L469.228 1198.06L469.31 1200.19L469.446 1202.3L469.635 1204.39L469.876 1206.47L470.17 1208.54L470.515 1210.59L470.91 1212.62L471.355 1214.63L471.849 1216.62L472.392 1218.6L472.983 1220.55L473.621 1222.48L474.305 1224.39L475.035 1226.28L475.811 1228.15L476.63 1229.99L477.494 1231.81L478.401 1233.6L479.35 1235.36L480.341 1237.11L481.373 1238.82L482.445 1240.5L483.558 1242.16L484.709 1243.79L485.899 1245.39L487.127 1246.96L488.391 1248.49L489.692 1250L491.029 1251.47L492.401 1252.91L493.808 1254.32L495.248 1255.69L496.721 1257.03L498.226 1258.33L499.763 1259.59L501.332 1260.82L502.93 1262.01L504.559 1263.16L506.216 1264.27L507.902 1265.35L509.615 1266.38L511.355 1267.37L513.122 1268.32L514.914 1269.23L516.732 1270.09L518.573 1270.91L520.439 1271.68L522.327 1272.41L524.238 1273.1L526.17 1273.74L528.123 1274.33L530.097 1274.87L532.09 1275.36L534.102 1275.81L536.132 1276.21L538.18 1276.55L540.245 1276.84L542.326 1277.09L544.423 1277.27L546.535 1277.41L548.661 1277.49L550.8 1277.52L552.939 1277.49L555.065 1277.41L557.177 1277.27L559.274 1277.09L561.355 1276.84L563.42 1276.55L565.468 1276.21L567.498 1275.81L569.51 1275.36L571.503 1274.87L573.477 1274.33L575.43 1273.74L577.362 1273.1L579.273 1272.41L581.161 1271.68L583.027 1270.91L584.868 1270.09L586.686 1269.23L588.478 1268.32L590.245 1267.37L591.985 1266.38L593.698 1265.35L595.384 1264.27L597.041 1263.16L598.67 1262.01L600.268 1260.82L601.837 1259.59L603.374 1258.33L604.879 1257.03L606.352 1255.69L607.792 1254.32L609.199 1252.91L610.571 1251.47L611.908 1250L613.209 1248.49L614.473 1246.96L615.701 1245.39L616.891 1243.79L618.042 1242.16L619.155 1240.5L620.227 1238.82L621.259 1237.11L622.25 1235.36L623.199 1233.6L624.106 1231.81L624.97 1229.99L625.789 1228.15L626.565 1226.28L627.295 1224.39L627.979 1222.48L628.617 1220.55L629.208 1218.6L629.751 1216.62L630.245 1214.63L630.69 1212.62L631.085 1210.59L631.43 1208.54L631.724 1206.47L631.965 1204.39L632.154 1202.3L632.29 1200.19L632.372 1198.06L632.4 1195.92" sodipodi:nodetypes="cccccccccccccccccccccccccccccccccccccccccccccccccccccccccccccccccccccccccccccccccccccccccccccccccccccccccccccccccccccccccccccccccccccccccccccccccccccccccccccccccccccccccccccccccccccccccccccccccccccccccccccccccccccccccccccccccccccccccccccccccccccccccccccccccccccccccccccccccccccccccccccccccccccccccccccccccccccccccccccccccccccccccccccccccccccccccccccccccccccccccccccccccccccccccccccccccccccccccccccccccccccccccccccccccccccccccccccccccccccccccccccccccccccccccccccccccccccccccccccccccccccccccccccccccccccccccc"/>
   <path id="_x23_F7EC13" transform="matrix(0 -0.24 0.24 0 26.16830508437 166.920481021753)" fill="#f7ec13" stroke-opacity="0" stroke="#000000" stroke-width="0" stroke-linecap="square" stroke-linejoin="bevel" d="M572.542 209.233C573.214 208.578 572.843 207.436 571.914 207.302L381.014 179.563C377.47 179.036 374.429 176.827 372.847 173.649L287.458 0.6315C287.042 -0.2105 285.842 -0.2105 285.426 0.6315L200.053 173.617C198.494 176.804 195.437 179.037 191.89 179.56L0.971093 207.302C0.0420937 207.436 -0.328907 208.578 0.343093 209.233L138.479 343.884C141.041 346.375 142.211 349.976 141.604 353.508L108.995 543.633C108.836 544.558 109.808 545.264 110.639 544.827L281.385 455.059C284.564 453.401 288.324 453.401 291.471 455.044L462.246 544.826C463.077 545.263 464.048 544.557 463.89 543.632L431.281 353.504C430.693 349.924 431.869 346.353 434.414 343.877ZM241.433 328.074C225.833 328.074 220.634 300.012 220.634 265.396C220.634 230.78 225.834 202.718 241.433 202.718C257.032 202.718 262.233 230.78 262.233 265.396C262.233 300.012 257.033 328.074 241.433 328.074ZM331.452 328.074C315.852 328.074 310.653 300.012 310.653 265.396C310.653 230.78 315.853 202.718 331.452 202.718C347.051 202.718 352.252 230.78 352.252 265.396C352.252 300.012 347.052 328.074 331.452 328.074Z" sodipodi:nodetypes="ccccccccccccccccccccccccccccccc"/>
   <path id="_x23_F2F2F3" transform="matrix(0 -0.24 0.24 0 77.97434508437 111.230858554488)" fill="#f2f2f3" stroke-opacity="0" stroke="#000000" stroke-width="0" stroke-linecap="square" stroke-linejoin="bevel" d="M108.806 17.025C108.806 26.428 104.6 34.05 99.413 34.05C94.225 34.05 90.02 26.427 90.02 17.025C90.02 7.622 94.226 0 99.413 0C104.6 0 108.806 7.622 108.806 17.025ZM9.393 0C4.205 0 0 7.623 0 17.025C0 26.428 4.206 34.05 9.393 34.05C14.581 34.05 18.786 26.427 18.786 17.025C18.786 7.622 14.581 0 9.393 0Z" sodipodi:nodetypes="cccccccccc"/>
   <ellipse id="shape17" transform="translate(4.57430508436994, 94.5743050843698)" rx="3.59999999999999" ry="3.60000000000002" cx="3.59999999999999" cy="3.60000000000002" fill="#ffffff" fill-rule="evenodd" stroke="#ffffff" stroke-width="0.72" stroke-linecap="square" stroke-linejoin="bevel"/>
   <ellipse id="shape016" transform="translate(65.7743050843699, 180.97430508437)" rx="3.59999999999999" ry="3.60000000000002" cx="3.59999999999999" cy="3.60000000000002" fill="#ffffff" fill-rule="evenodd" stroke="#ffffff" stroke-width="0.72" stroke-linecap="square" stroke-linejoin="bevel"/>
   <ellipse id="shape017" transform="translate(170.17430508437, 144.97430508437)" rx="3.59999999999999" ry="3.60000000000002" cx="3.59999999999999" cy="3.60000000000002" fill="#ffffff" fill-rule="evenodd" stroke="#ffffff" stroke-width="0.72" stroke-linecap="square" stroke-linejoin="bevel"/>
   <ellipse id="shape018" transform="translate(166.57430508437, 40.5743050843701)" rx="3.59999999999999" ry="3.60000000000002" cx="3.59999999999999" cy="3.60000000000002" fill="#ffffff" fill-rule="evenodd" stroke="#ffffff" stroke-width="0.72" stroke-linecap="square" stroke-linejoin="bevel"/>
   <ellipse id="shape019" transform="translate(65.7743050843699, 8.17430508436973)" rx="3.59999999999999" ry="3.60000000000002" cx="3.59999999999999" cy="3.60000000000002" fill="#ffffff" fill-rule="evenodd" stroke="#ffffff" stroke-width="0.72" stroke-linecap="square" stroke-linejoin="bevel"/>
   <ellipse id="shape020" transform="translate(20.1743050843699, 41.7743050843699)" rx="3.59999999999999" ry="3.60000000000002" cx="3.59999999999999" cy="3.60000000000002" fill="#ffffff" fill-rule="evenodd" stroke="#ffffff" stroke-width="0.72" stroke-linecap="square" stroke-linejoin="bevel"/>
   <ellipse id="shape021" transform="translate(20.17430508437, 146.17430508437)" rx="3.59999999999999" ry="3.60000000000002" cx="3.59999999999999" cy="3.60000000000002" fill="#ffffff" fill-rule="evenodd" stroke="#ffffff" stroke-width="0.72" stroke-linecap="square" stroke-linejoin="bevel"/>
   <ellipse id="shape022" transform="translate(122.17430508437, 180.97430508437)" rx="3.59999999999999" ry="3.60000000000002" cx="3.59999999999999" cy="3.60000000000002" fill="#ffffff" fill-rule="evenodd" stroke="#ffffff" stroke-width="0.72" stroke-linecap="square" stroke-linejoin="bevel"/>
   <ellipse id="shape023" transform="translate(122.17430508437, 8.17430508436996)" rx="3.59999999999999" ry="3.60000000000002" cx="3.59999999999999" cy="3.60000000000002" fill="#ffffff" fill-rule="evenodd" stroke="#ffffff" stroke-width="0.72" stroke-linecap="square" stroke-linejoin="bevel"/>
   <ellipse id="shape024" transform="translate(184.57430508437, 94.5743050843701)" rx="3.59999999999999" ry="3.60000000000002" cx="3.59999999999999" cy="3.60000000000002" fill="#ffffff" fill-rule="evenodd" stroke="#ffffff" stroke-width="0.72" stroke-linecap="square" stroke-linejoin="bevel"/>
  </g>
 </g>
</svg>
